<?xml version="1.0" encoding="UTF-8" standalone="no"?>
<svg
   xmlns:dc="http://purl.org/dc/elements/1.1/"
   xmlns:cc="http://creativecommons.org/ns#"
   xmlns:rdf="http://www.w3.org/1999/02/22-rdf-syntax-ns#"
   xmlns:svg="http://www.w3.org/2000/svg"
   xmlns="http://www.w3.org/2000/svg"
   xmlns:sodipodi="http://sodipodi.sourceforge.net/DTD/sodipodi-0.dtd"
   xmlns:inkscape="http://www.inkscape.org/namespaces/inkscape"
   width="290"
   height="375"
   viewBox="0 0 232 300"
   id="svg2"
   version="1.1"
   inkscape:version="0.91 r13725"
   sodipodi:docname="pizza.svg">
  <metadata
     id="metadata92">
    <rdf:RDF>
      <cc:Work
         rdf:about="">
        <dc:format>image/svg+xml</dc:format>
        <dc:type
           rdf:resource="http://purl.org/dc/dcmitype/StillImage" />
      </cc:Work>
    </rdf:RDF>
  </metadata>
  <defs
     id="defs90" />
  <sodipodi:namedview
     pagecolor="#ffffff"
     bordercolor="#666666"
     borderopacity="1"
     objecttolerance="10"
     gridtolerance="10"
     guidetolerance="10"
     inkscape:pageopacity="0"
     inkscape:pageshadow="2"
     inkscape:window-width="1500"
     inkscape:window-height="937"
     id="namedview88"
     showgrid="false"
     inkscape:zoom="1.7800235"
     inkscape:cx="197.65799"
     inkscape:cy="258.72982"
     inkscape:window-x="-8"
     inkscape:window-y="-8"
     inkscape:window-maximized="1"
     inkscape:current-layer="svg2" />
  <path
     fill="#cb893c"
     d="m34.26 81.27c28.14-35.05 79.94-47.23 121.12-29.72 19.45 6.95 33.83 21.94 47.66 36.47 6.45 8.52 11.36 18.57 14.35 28.79-.23 2.09.001 4.18.58 6.2 11.89 46.05-10.69 99.1-53.94 120.05-41.43 22.83-97.74 12.3-128.22-23.86-34.49-37.35-35.14-99.8-1.55-137.93"
     id="path14" />
  <path
     fill="#d59742"
     d="m103.37 46.41c45.25-5.9 92.34 22.1 108.2 64.94 12.36 30.68 8.86 67.11-9.55 94.66-26.48 42.57-86.14 59.59-131.03 37.02-43.07-19.08-68.02-70.24-57.01-115.97 8.61-42.37 46.4-76.34 89.39-80.65"
     id="path16" />
  <path
     fill="#dda449"
     d="m61.09 64.12c36.44-24.16 88.11-19.89 120.65 9.14 39.37 32.86 45.93 96.55 14.28 136.75-28.7 40.24-88.77 52.54-131.05 27.05-6.67-4.6-15.79-8.25-18.88-16.2 5.6 3.89 13.28 3.07 18.57 7.51 3.51 3.19 6.68 7.14 11.47 8.46 19.64 4.7 40.05 14.33 60.16 5.43 12.61-7.28 30.2-4.82 40.01-16.95 8.8-9.6 16.08-20.5 24.97-30.04 7.01-7.84 5.66-18.96 4.05-28.43.11-11.02 3.36-21.78 3.62-32.8-.47-11.62-10.09-20.23-10.14-31.94-3.79-9.53-14.18-13.81-19.77-22.12-14.75-20.89-42.83-21.1-65.39-26.63-9.44-.62-17.94 6.24-27.63 4.8-7.48 2.16-13.3 8.03-21.09 9.78-10.55 12.18-22.22 23.83-32.85 36.13-9.06 20.17-7.48 43.12-10.5 64.61-4.09 17.73 12.57 29.73 17.76 45.1-11.21-7.21-15.2-21.21-20.09-33.05-15.23-42.3 3.45-93.44 41.85-116.6"
     id="path18" />
  <path
     fill="#b02931"
     d="m86.01 58.15c9.69 1.44 18.19-5.42 27.63-4.8 22.56 5.53 50.64 5.74 65.39 26.63 5.59 8.31 15.98 12.59 19.77 22.12.05 11.71 9.67 20.32 10.14 31.94-.26 11.02-3.51 21.78-3.62 32.8 1.61 9.47 2.96 20.59-4.05 28.43-8.89 9.54-16.17 20.44-24.97 30.04-9.81 12.13-27.4 9.67-40.01 16.95-20.11 8.9-40.52-.73-60.16-5.43-4.79-1.32-7.96-5.27-11.47-8.46-5.29-4.44-12.97-3.62-18.57-7.51-2.63-1.98-5.09-4.21-6.76-7.09-5.19-15.37-21.85-27.37-17.76-45.1 3.02-21.49 1.44-44.44 10.5-64.61 10.63-12.3 22.3-23.95 32.85-36.13 7.79-1.75 13.61-7.62 21.09-9.78"
     id="path20" />
  <path
     fill="#bd212e"
     d="m85.09 61.14c12.13 2.26 22.66-8.35 34.81-3.95 15.28 3.68 31.62 5.35 45.33 13.58.7.42 3.07 2.93.62 2.37-4.52-.12-9.01.18-13.51.46-5.69-3.43-10.75-8.82-17.8-9.09-5.61.46-11.78-4.63-16.88-.85-3.45 2.15-5.91 5.46-8.99 8.04-5.46.52-10.21-3.69-15.53-3.62-5.09 2.39-9.63 6.07-15.43 6.71-6.29 1.34-7.24 8.93-9.09 13.85-3.01 5.18-10.39 2.87-14.85 6.14-5.8 3.61-7.04 11.42-11.54 16.37-5.33 4.98-1.15 12.86-4.54 18.52-2.2 2.81-6.28 4.22-6.94 8.09-.64 4.08-1.53 8.53-.09 12.55 4.91 9.2 7.64 18.81 6.72 29.37 3.97 7.54 6.27 15.54 6.83 24.07 7.18 1.92 10.07 9.3 15.54 13.42 8.38-.69 7.82 10.82 15.11 12.03 5.58 1.85 11.11-.79 16.61-1.63 9.4-4.18 13.9 9.77 23.27 7.35.36-11.06 13.94-7.54 20.39-3.09 6.19 5.12 12.88-2.06 18.96-3.61 4.5-2.36 14.18-1.55 14.7-8.18-2.77-8.17 6.07-12.39 12.02-15.21 1.17-6.56 5.84-11.35 9.1-16.9 4.34-5.5.04-12.49 1.33-18.66 2.29-4.42 8.95-7 6.44-13.07-3.99-7.63-3.66-15.95-1.5-23.97.74-3.49.78-6.98.11-10.48-.9-7.01-4.74-13.39-9.98-18.06-6.1-5.69-9.37-13.62-11.63-21.49 3.45-.9 8.51 7.73 12.66 10.41 5.34 3.78 10.41 9.32 9.62 16.43.32 7.19 6.95 11.99 8.1 18.92 3.39 12.71-2.58 25.28-2.12 38.03-1.02 8.34 3.7 17.53-1.99 24.98-8.82 10.81-17.73 21.58-26.51 32.44-10 11.28-26.73 8.72-38.82 16.17-18.19 7.58-37.78.71-55.63-4.59-7.16-.85-11.01-7.83-17.04-10.91-4.51-1.96-9.64-2.45-13.89-5.15-6.58-2.75-8.94-10.12-12.07-15.93-5.22-10.61-15.48-19.92-13-33.01 2.57-20.35 1.96-41.57 8.91-61.08 9.54-14.12 23.19-25.12 33.38-38.61 6.71-2.16 12.68-5.81 18.81-9.16"
     id="path22" />
  <path
     fill="#fbb867"
     d="m117.66 63.66c5.1-3.78 11.27 1.31 16.88.85 7.05.27 12.11 5.66 17.8 9.09 4.5-.28 8.99-.58 13.51-.46 4.18 1.5 7.22 4.99 8.83 9.06 2.26 7.87 5.53 15.8 11.63 21.49 5.24 4.67 9.08 11.05 9.98 18.06-.06 3.49-.13 6.99-.11 10.48-2.16 8.02-2.49 16.34 1.5 23.97 2.51 6.07-4.15 8.65-6.44 13.07-1.29 6.17 3.01 13.16-1.33 18.66-3.26 5.55-7.93 10.34-9.1 16.9-5.95 2.82-14.79 7.04-12.02 15.21-.52 6.63-10.2 5.82-14.7 8.18-6.08 1.55-12.77 8.73-18.96 3.61-6.45-4.45-20.03-7.97-20.39 3.09-9.37 2.42-13.87-11.53-23.27-7.35-5.5.84-11.03 3.48-16.61 1.63-7.29-1.21-6.73-12.72-15.11-12.03-5.47-4.12-8.36-11.5-15.54-13.42-.56-8.53-2.86-16.53-6.83-24.07.92-10.56-1.81-20.17-6.72-29.37.04-4.18.07-8.37.09-12.55.66-3.87 4.74-5.28 6.94-8.09 3.39-5.66-.79-13.54 4.54-18.52 4.5-4.95 5.74-12.76 11.54-16.37 4.46-3.27 11.84-.96 14.85-6.14 1.85-4.92 2.8-12.51 9.09-13.85 5.8-.64 10.34-4.32 15.43-6.71 5.32-.07 10.07 4.14 15.53 3.62 3.08-2.58 5.54-5.89 8.99-8.04"
     id="path24" />
  <path
     fill="#fdcf97"
     d="m119.34 66.27c9.36-.11 19.99.17 26.96 7.41 6.21 6.65 15.51-.19 22.5 4.57 5.46 8.72 6.14 20.47 14.95 27 5.62 4.67 10.45 14.11 8.39 19.61-2.94-5.42-7.85-9.42-14.05-10.15-2.35-.93-5.64-2.35-7.17.32-5.07-5.09-11.67-9.18-19.49-6.62-12.21 1.22-17.02 18.47-8.35 26.47 4.25 5.71 12.81 5.8 19 3.41 6.6 6.99 21.46 10 27.8 1.55.93 4.79 1.68 12.08 4.95 17.31 1.68 4.21-3.25 5.74-5.23 8.47-2.32 2.26-1.43 6.06-3.35 8.48-.66-6.25-6.53-10.1-12.14-11.61-2.37-1.37-4.44-1.34-6.22.09-9.19 2.18-16.95 11.63-12.67 21.24 1.39 10.54 13.61 8.86 21.12 7.54 6.47-1.98 8.94-9.08 9.94-15.16 3.09-4.29 1.74 4.49 2.56 6.75-1.79 5.78-7.45 9.49-9.54 15.19.18 7.09-10.24 6.43-12.31 12.85-4.11 3.58 1.62 12.56-6.02 11.91-8.98-.94-18.99 13.03-26 4.1 15.07 4.14 27.47-15.71 16.36-27.29-2.91-2.96-7.29-3.51-11.2-4.01-2.47-1.22-5.54-2.48-7.33.08-11.71 3.74-14.41 20.88-5.04 28.4-2.32 3.15-18.78-4.06-14.91 7.84-5.92-1.08-10.54-6.75-15.82-9.01 6.46-.04 14.31-2.53 16.87-9.11 2.51-6.8 1.18-15-4.13-20.07 3.05-2.13 6.72-3.53 9.2-6.39-4.3-1.51-8.48-3.59-11.23-7.35 6.51-4.85 4.84-14.14 1.81-20.69-5.74-10.81-26.51-10.38-27.8 3.48-1.33 2.37-2.54 5.6.11 7.27 1.87 6.21 6.8 11.15 12.95 13.1 5.41-.17 4 3.85 1.1 6.55-4.87 1.44-11.05 3.21-12.15 8.97-.78 4.08-1.34 8.47-.15 12.55 1.11 5.59 6.12 9.2 11.26 10.91-5.12 3.9-15.17 6.37-21.61 2.49-3.27-3.82-5.35-13.08-12.1-9.89-4.42-4.59-7.71-10.64-13.79-13.27.75-11.73-9.97-20.55-7.02-32.48 1.07-9.86-9.52-16.78-6.38-27.09-2.13-7.95 10.71-9.51 7.98-18-1.82-9.13 7.15-13.93 9.49-21.64 3.21-10.69 21.12-2.74 21.56-16.35.58-10.62 11.95-7.9 18.02-12.92 5.72-3.7 11.04 3.22 17.01 1.95 5.45-.19 6.45-7.33 11.31-8.76"
     id="path26" />
  <path
     fill="#a62c21"
     d="m128.63 78.61c8.86-5.29 20.1.13 23.35 9.36 6.2 10.8-7.3 23.72-17.85 18.75-2.76-1.12-5.47-2.35-8.05-3.82-6.35-6.94-6.82-19.68 2.55-24.29"
     id="path28" />
  <path
     fill="#a62c20"
     d="m84.25 84.23c6.87-9.6 25.49-8.65 28.78 3.75 3.19 7.99-.99 19.13-9.86 21.23l-.85.16c-4.18-.05-8.37-.1-12.55-.13-1.31-.5-2.45-1.32-3.61-2.07-5.96-5.71-7.43-16.44-1.91-22.94"
     id="path30" />
  <path
     fill="#fbbb69"
     d="m120.14 105.2c1.95-.82 3.83-1.95 5.94-2.3 2.58 1.47 5.29 2.7 8.05 3.82-2.42 1.73-4.78 3.54-7.18 5.29-2.23-2.3-4.35-4.73-6.81-6.81"
     id="path32" />
  <path
     fill="#fcbc69"
     d="m86.16 107.17c1.16.75 2.3 1.57 3.61 2.07 4.1.95 8.44 1.09 12.55.13l.85-.16c-.73 2.71-1.65 5.37-2.35 8.09-2.76.89-5.33 2.23-7.73 3.85-3-1.32-2.83-7.29-8.12-4.12-10.91 1.71 1.82-5.04 1.19-9.86"
     id="path34" />
  <path
     fill="#a52b20"
     d="m151.43 108.41c7.82-2.56 14.42 1.53 19.49 6.62 1.79-.08 5.38-.24 7.17-.32 6.2.73 11.11 4.73 14.05 10.15 1.21 4.99.83 10.72-2.26 14.98-6.34 8.45-21.2 5.44-27.8-1.55-6.19 2.39-14.75 2.3-19-3.41-8.67-8-3.86-25.25 8.35-26.47"
     id="path36" />
  <path
     fill="#d67c52"
     d="m89.77 109.24c4.18.03 8.37.08 12.55.13-4.11.96-8.45.82-12.55-.13"
     id="path38" />
  <path
     fill="#d37b57"
     d="m170.92 115.03c1.53-2.67 4.82-1.25 7.17-.32-1.79.08-5.38.24-7.17.32"
     id="path40" />
  <g
     fill="#a52c20"
     id="g42">
    <path
       d="m45.94 127.2c3.2-15.47 29.05-16.46 32.21-.31 3.46 10.34-6.73 22.69-17.86 19.84-6.96-.42-14.26-5.37-14.35-12.92 0-1.65 0-4.96 0-6.61"
       id="path44" />
    <path
       d="m100.82 117.3c7.37-2.68 15.62-1.94 18.77 6.06 4.77 9.08-1.5 19.74-10.66 22.56-7.77 2.59-20.53-1.95-18.96-11.93-1.19-4.71 1.39-8.77 3.12-12.84 2.4-1.62 4.97-2.96 7.73-3.85"
       id="path46" />
  </g>
  <path
     fill="#dc6948"
     d="m196.29 121.75c.67 3.5.63 6.99-.11 10.48-.02-3.49.05-6.99.11-10.48"
     id="path48" />
  <path
     fill="#d6825d"
     d="m45.94 133.81c-1.86-.85-1.87-5.77 0-6.61 0 1.65 0 4.96 0 6.61"
     id="path50" />
  <path
     fill="#dd6d4a"
     d="m30.66 150.31c-1.44-4.02-.55-8.47.09-12.55-.02 4.18-.05 8.37-.09 12.55"
     id="path52" />
  <path
     fill="#a52b1f"
     d="m142.3 140.3c5.41.14 13.47 2.56 14.31 9.08 1.79 6.38-1.94 12.79-7.22 16.12 1.36 7.45.85 16.36-5.98 20.98-6.49 5.41-19.34 5.97-22.43-3.45-4.82-7.43-.45-18.28 6.72-22.34 4.53-1.21-.4-6.98 1.95-10.04 2.32-5.4 7.41-8.43 12.65-10.35"
     id="path56" />
  <path
     fill="#a52a1e"
     d="m81.75 162.88c1.29-13.86 22.06-14.29 27.8-3.48 3.03 6.55 4.7 15.84-1.81 20.69-3.88 2.38-8.44 3-12.93 3.16-6.15-1.95-11.08-6.89-12.95-13.1-.03-1.82-.08-5.45-.11-7.27"
     id="path62" />
  <path
     fill="#a52b20"
     d="m61.36 156.4c13.17-5.03 22.96 14.69 11.97 22.91 6.31 6 7.65 16.11 1.67 22.67-5.22 5.5-15.03 5.63-20.77.77-8.02-5.84-8.57-19.06-1.32-25.79-6.63-7.23-2.67-21.56 8.45-20.56"
     id="path64" />
  <path
     fill="#d37d58"
     d="m167.89 162.58c1.78-1.43 3.85-1.46 6.22-.09-1.93 1.06-4.27 1.18-6.22.09"
     id="path66" />
  <path
     fill="#d67f5a"
     d="m81.86 170.15c-2.65-1.67-1.44-4.9-.11-7.27.03 1.82.08 5.45.11 7.27"
     id="path68" />
  <path
     fill="#a52b20"
     d="m155.22 183.82c-4.28-9.61 3.48-19.06 12.67-21.24 1.95 1.09 4.29.97 6.22-.09 5.61 1.51 11.48 5.36 12.14 11.61.001.52.02 1.58.03 2.1-1 6.08-3.47 13.18-9.94 15.16-7.51 1.32-19.73 3-21.12-7.54"
     id="path70" />
  <path
     fill="#fab866"
     d="m94.81 183.25c4.49-.16 9.05-.78 12.93-3.16 2.75 3.76 6.93 5.84 11.23 7.35-2.48 2.86-6.15 4.26-9.2 6.39-4.05-3.03-8.8-4.47-13.86-4.03 2.9-2.7 4.31-6.72-1.1-6.55"
     id="path72" />
  <path
     fill="#a52b1e"
     d="m83.76 198.77c1.1-5.76 7.28-7.53 12.15-8.97 5.06-.44 9.81 1 13.86 4.03 5.31 5.07 6.64 13.27 4.13 20.07-2.56 6.58-10.41 9.07-16.87 9.11-.54-.2-1.62-.58-2.16-.78-5.14-1.71-10.15-5.32-11.26-10.91.06-4.19.11-8.38.15-12.55"
     id="path76" />
  <path
     fill="#d2815d"
     d="m132.8 195.78c1.79-2.56 4.86-1.3 7.33-.08-1.83.02-5.5.06-7.33.08"
     id="path78" />
  <path
     fill="#a52b20"
     d="m127.76 224.18c-9.37-7.52-6.67-24.66 5.04-28.4 1.83-.02 5.5-.06 7.33-.08 3.91.5 8.29 1.05 11.2 4.01 11.11 11.58-1.29 31.43-16.36 27.29-2.44-.87-4.83-1.83-7.21-2.82"
     id="path80" />
  <path
     fill="#d27a57"
     d="m83.61 211.32c-1.19-4.08-.63-8.47.15-12.55-.04 4.17-.09 8.36-.15 12.55"
     id="path82" />
</svg>
